<svg width="30" height="28" viewBox="0 0 30 28" fill="none" xmlns="http://www.w3.org/2000/svg">
<g clip-path="url(#clip0_251_24)">
<path d="M10.0996 7.60506L12.4843 15.0676H20.1992L13.957 19.6838L16.3417 27.1464L10.0996 22.5302L3.85744 27.1464L6.24214 19.6838L0 15.0676H7.71488L10.0996 7.60506Z" fill="white"/>
<path d="M24.0776 6.09655C18.1918 0.105163 10.4455 -1.72317 6.77675 2.00812C4.8952 3.92174 4.45494 6.92276 5.26207 10.2063C4.88995 7.92488 5.29876 5.92597 6.58807 4.60936C9.60169 1.54437 16.2841 3.37804 21.5199 8.69779C26.7558 14.0229 28.5535 20.8191 25.5399 23.8841C24.2453 25.2007 22.2799 25.6112 20.0367 25.2327C23.26 26.0536 26.216 25.6059 28.0975 23.6922C31.7663 19.961 29.9633 12.0826 24.0776 6.09655Z" fill="white"/>
</g>
<defs>
<clipPath id="clip0_251_24">
<rect width="30" height="27.0732" fill="white" transform="translate(0 0.0731812)"/>
</clipPath>
</defs>
</svg>
